<svg xmlns="http://www.w3.org/2000/svg" viewBox="0 0 492 119" version="1.1"><rect x="0" y="0" width="492" height="119" fill="#0b1020"/>
	<path d="M 33.698 21.444 C 20.642 26.101, 13.538 37.613, 13.610 54 C 13.671 68.208, 19.350 78.519, 30.209 84.138 C 36.203 87.239, 49.710 87.921, 57.026 85.491 C 66.010 82.507, 74.560 72.667, 73.809 66.174 C 73.508 63.566, 73.312 63.493, 65.888 63.210 L 58.275 62.921 56.967 66.079 C 54.315 72.483, 45.171 74.938, 37.984 71.176 C 27.108 65.482, 27.125 41.693, 38.009 35.855 C 44.919 32.150, 53.062 34.305, 56.502 40.749 L 58.504 44.500 66.002 44.500 C 73.464 44.500, 73.502 44.487, 73.820 41.711 C 74.603 34.892, 66.109 24.588, 57.205 21.554 C 51.607 19.647, 38.904 19.587, 33.698 21.444 M 162.706 20.627 C 162.318 21.015, 162 25.735, 162 31.116 L 162 40.898 158.532 39.449 C 156.625 38.652, 152.462 38.013, 149.282 38.028 C 123.645 38.153, 117.417 75.401, 141.297 85.784 C 145.754 87.722, 155.963 87.320, 159.668 85.061 C 162.365 83.416, 162.920 83.350, 163.404 84.611 C 163.845 85.760, 165.488 86.026, 170.736 85.796 L 177.500 85.500 177.500 53 L 177.500 20.500 170.456 20.210 C 166.582 20.051, 163.095 20.239, 162.706 20.627 M 233.454 22.260 C 233.188 22.953, 233.090 37.465, 233.235 54.510 L 233.500 85.500 240.410 85.799 C 245.263 86.010, 247.566 85.712, 248.145 84.799 C 248.598 84.085, 248.976 78.633, 248.985 72.684 L 249 61.867 251.524 62.184 C 253.671 62.453, 254.854 64.213, 259.462 74 L 264.877 85.500 272.817 85.788 C 279.316 86.025, 280.867 85.790, 281.364 84.494 C 281.715 83.580, 279.650 78.281, 276.486 71.972 C 273.469 65.956, 271.001 60.688, 271.003 60.267 C 271.004 59.845, 272.307 58.628, 273.898 57.562 C 285.691 49.661, 283.081 29.031, 269.509 22.865 C 264.464 20.573, 234.295 20.067, 233.454 22.260 M 36 25.472 C 29.637 27.539, 24.581 32.117, 21.314 38.770 C 18.862 43.764, 18.500 45.657, 18.500 53.500 C 18.500 61.500, 18.833 63.167, 21.500 68.500 C 27.035 79.570, 37.529 84.515, 50.700 82.259 C 58.472 80.927, 64.352 77.190, 67.076 71.851 C 69.554 66.994, 69.556 67, 65.876 67 C 63.435 67, 61.901 67.967, 58.861 71.420 C 54.916 75.902, 48.314 78.508, 43.425 77.512 C 42.366 77.297, 40.251 76.857, 38.725 76.535 C 34.049 75.548, 28.198 69.406, 26.506 63.707 C 23.373 53.159, 25.423 40.834, 31.223 35.343 C 36.001 30.819, 38.553 29.800, 45.108 29.800 C 51.957 29.800, 56.482 31.988, 59.500 36.760 C 61.154 39.375, 62.149 39.930, 65.250 39.961 C 69.482 40.005, 69.534 39.922, 67.589 36.200 C 65.781 32.739, 61.409 28.687, 57.175 26.550 C 52.546 24.213, 41.595 23.655, 36 25.472 M 167 34.418 C 167 40.148, 166.727 45.548, 166.393 46.418 C 165.601 48.482, 162.612 48.443, 160.872 46.345 C 157.267 41.997, 149.030 40.895, 142.459 43.880 C 134.459 47.514, 130.336 55.274, 131.323 64.839 C 132.838 79.519, 148.686 87.816, 159.481 79.582 C 163.575 76.460, 166.358 76.527, 166.820 79.760 C 167.067 81.498, 167.796 82, 170.070 82 L 173 82 173 53 L 173 24 170 24 L 167 24 167 34.418 M 238 53.402 L 238 82 241 82 L 244 82 244 71.582 C 244 57.837, 243.914 58, 251.176 58 L 257.138 58 262.745 70 L 268.351 82 272.138 82 L 275.925 82 270.462 70.375 C 267.458 63.981, 265 58.603, 265 58.423 C 265 58.243, 266.970 56.741, 269.377 55.085 C 276.753 50.010, 278.806 41.959, 274.750 34.020 C 271.189 27.050, 267.275 25.573, 251.250 25.152 L 238 24.804 238 53.402 M 245.750 31.009 C 244.285 31.922, 244 33.627, 244 41.468 C 244 54.413, 243.698 54, 253.157 54 C 262.265 54, 266.187 52.473, 268.483 48.033 C 271.422 42.350, 269.283 34.363, 264.202 32.044 C 260.494 30.352, 247.935 29.648, 245.750 31.009 M 249 42.620 L 249 50.240 254.963 49.809 C 262.178 49.287, 265 47.188, 265 42.345 C 265 37.077, 262.173 35, 255 35 L 249 35 249 42.620 M 91.460 39.064 C 87.039 40.350, 80.494 46.347, 78.088 51.318 C 75.608 56.441, 75.242 67.250, 77.375 72.355 C 79.414 77.236, 84.946 83.070, 89.491 85.135 C 95.661 87.938, 105.343 87.630, 111.771 84.427 C 129.049 75.817, 129.185 49.793, 111.998 40.750 C 106.461 37.836, 98.055 37.147, 91.460 39.064 M 194.310 40.436 C 179.122 47.507, 176.438 70.972, 189.577 81.803 C 197.209 88.094, 211.456 88.870, 219.215 83.417 C 224.436 79.747, 228 74.650, 228 70.852 L 228 68 220.865 68 C 214.538 68, 213.467 68.283, 211.412 70.500 C 208.545 73.594, 204.242 73.765, 200.635 70.927 C 199.186 69.788, 198 68.449, 198 67.953 C 198 67.457, 205.088 66.927, 213.750 66.775 L 229.500 66.500 229.500 59.920 C 229.500 54.347, 229.039 52.595, 226.485 48.464 C 220.318 38.493, 206.101 34.946, 194.310 40.436 M 297.500 39.879 C 284.526 45.830, 279.449 62.254, 286.634 75.028 C 290.933 82.671, 296.928 86.318, 306.039 86.832 C 314.395 87.304, 319.052 85.849, 324.287 81.129 C 329.880 76.087, 331.956 71.043, 331.956 62.500 C 331.956 51.547, 326.894 43.351, 317.782 39.551 C 312.676 37.421, 302.499 37.586, 297.500 39.879 M 346.881 40.793 C 340.327 44.217, 336.398 49.539, 334.811 57.141 C 330.723 76.722, 347.679 91.629, 367.384 85.778 C 372.796 84.170, 380.170 76.796, 381.778 71.384 C 384.775 61.292, 382.667 51.612, 376.028 44.972 C 368.382 37.326, 356.719 35.654, 346.881 40.793 M 404.579 39.480 C 402.577 40.562, 401.335 40.735, 400.629 40.029 C 398.877 38.277, 387.317 38.732, 386.607 40.582 C 385.686 42.983, 385.912 83.312, 386.855 84.799 C 387.434 85.712, 389.737 86.010, 394.590 85.799 L 401.500 85.500 402 71.500 C 402.608 54.488, 403.687 52, 410.459 52 C 414.776 52, 415.467 54.295, 416 70.399 L 416.500 85.500 424 85.500 L 431.500 85.500 432 71.500 C 432.296 63.219, 432.999 56.629, 433.722 55.368 C 435.759 51.814, 440.167 50.940, 443.559 53.417 C 445.292 54.683, 445.554 56.476, 446 70.167 L 446.500 85.500 454 85.500 L 461.500 85.500 461.805 70.500 C 462.124 54.755, 461.340 49.702, 457.803 44.727 C 452.286 36.968, 437.743 35.658, 428.907 42.126 C 427.631 43.059, 426.676 42.820, 424.114 40.926 C 419.979 37.869, 409.057 37.061, 404.579 39.480 M 93 43.533 C 84.932 47.169, 80.700 53.632, 80.581 62.500 C 80.360 78.872, 98.205 88.575, 111.417 79.268 C 122.817 71.237, 122.792 53.745, 111.369 45.698 C 106.347 42.160, 98.182 41.198, 93 43.533 M 198.655 43.399 C 181.316 49.851, 182.110 77.048, 199.781 81.956 C 207.798 84.182, 215.308 81.979, 220.447 75.892 L 223.311 72.500 220.046 72.178 C 217.786 71.956, 216.095 72.502, 214.551 73.952 C 207.140 80.914, 192.302 75.855, 193.193 66.670 L 193.500 63.500 209.250 63.225 L 225 62.949 225 59.435 C 225 47.532, 210.792 38.883, 198.655 43.399 M 301.211 43.129 C 296.485 44.492, 290.335 51.043, 288.949 56.190 C 285.424 69.280, 293.019 81.149, 305.895 82.674 C 310.093 83.171, 311.847 82.820, 316.465 80.561 C 323.946 76.901, 327.493 71.092, 327.493 62.500 C 327.493 48.377, 314.984 39.157, 301.211 43.129 M 352.685 43.017 C 344.731 45.404, 339.044 53.527, 339.044 62.500 C 339.044 80.572, 359.350 89.535, 372.339 77.197 C 376.764 72.994, 378.346 69.122, 378.346 62.500 C 378.346 55.878, 376.764 52.006, 372.339 47.803 C 366.976 42.709, 359.653 40.925, 352.685 43.017 M 408.001 43.070 C 406.626 43.648, 404.528 45.034, 403.340 46.151 C 400.659 48.669, 397.605 48.217, 397.180 45.240 C 396.933 43.502, 396.204 43, 393.930 43 L 391 43 391 62.500 L 391 82 394.500 82 L 398 82 398.015 69.250 C 398.024 61.123, 398.477 55.628, 399.265 54.096 C 401.267 50.200, 405.371 47.756, 409.809 47.817 C 418.650 47.939, 421 52.601, 421 70.020 L 421 82 424 82 L 427 82 427 72.549 C 427 54.118, 430.215 48, 439.902 48 C 448.572 48, 450.936 52.963, 450.976 71.250 L 451 82 454 82 L 457 82 457 67.968 C 457 52.543, 456.098 48.796, 451.520 45.194 C 445.972 40.830, 437.242 41.401, 431.151 46.527 C 427.349 49.725, 426.262 49.646, 422.383 45.887 C 418.821 42.434, 412.473 41.191, 408.001 43.070 M 149.275 48.054 C 144.513 49.063, 141.014 51.721, 139.416 55.546 C 134.925 66.296, 141.439 77.167, 152.374 77.167 C 158.525 77.167, 162.407 74.855, 164.898 69.712 C 167.481 64.374, 167.523 60.749, 165.063 55.331 C 162.401 49.469, 156.166 46.594, 149.275 48.054 M 202.014 48.064 C 197.774 49.013, 192.757 54.283, 193.191 57.332 C 193.485 59.397, 194.059 59.513, 205.269 59.782 C 218.171 60.091, 219.304 59.573, 217.402 54.235 C 215.612 49.214, 208.903 46.523, 202.014 48.064 M 92.096 50.573 C 88.370 53.708, 86.575 59.683, 87.503 65.869 C 88.939 75.442, 98.285 80.003, 107.115 75.440 C 114.996 71.367, 114.858 53.564, 106.915 49.456 C 102.311 47.075, 95.656 47.577, 92.096 50.573 M 300.615 50.088 C 296.866 53.037, 295 57.161, 295 62.500 C 295 71.323, 300.090 77, 308 77 C 313.568 77, 317.514 74.408, 319.621 69.364 C 322.448 62.600, 320.643 54.225, 315.486 50.168 C 311.750 47.229, 304.301 47.189, 300.615 50.088 M 351.881 49.503 C 344.001 53.786, 344.139 71.435, 352.085 75.544 C 353.634 76.345, 356.993 77, 359.550 77 C 363.470 77, 364.714 76.486, 367.474 73.726 C 373.442 67.758, 373.088 55.776, 366.786 50.473 C 363.372 47.600, 356.237 47.136, 351.881 49.503 M 94.589 55.077 C 86.924 64.186, 97.281 78.809, 105.545 70.545 C 109.098 66.993, 109.098 58.007, 105.545 54.455 C 102.050 50.959, 97.854 51.197, 94.589 55.077 M 145.923 54.923 C 143.530 57.316, 143 58.690, 143 62.500 C 143 71.567, 152.102 76.257, 158.694 70.587 C 161.155 68.470, 161.500 67.476, 161.500 62.500 C 161.500 57.524, 161.155 56.530, 158.694 54.413 C 154.682 50.962, 149.685 51.161, 145.923 54.923 M 200.750 53.572 C 199.238 54.393, 198 55.275, 198 55.532 C 198 55.789, 201.488 55.985, 205.750 55.967 L 213.500 55.933 211.139 53.967 C 208.353 51.646, 204.566 51.502, 200.750 53.572 M 302.455 54.455 C 300.434 56.475, 300 57.897, 300 62.500 C 300 67.103, 300.434 68.525, 302.455 70.545 C 308.162 76.253, 316 71.598, 316 62.500 C 316 53.402, 308.162 48.747, 302.455 54.455 M 354.031 53.774 C 349.710 57.273, 349.728 67.740, 354.061 71.250 C 357.233 73.819, 360.746 73.408, 364.077 70.077 C 372.103 62.051, 362.684 46.767, 354.031 53.774" stroke="none" fill="#ffffff" fill-rule="evenodd"/>
</svg>